<svg width="761" height="761" viewBox="0 0 761 761" fill="none" xmlns="http://www.w3.org/2000/svg">
<mask id="path-1-outside-1_1_2" maskUnits="userSpaceOnUse" x="184" y="275" width="404" height="212" fill="black">
<rect fill="white" x="184" y="275" width="404" height="212"/>
<path fill-rule="evenodd" clip-rule="evenodd" d="M185 398V450H223.1V398H185ZM285.8 486H225V451.5H302.9C320.6 451.5 334.1 443.4 334.1 423.3C334.1 403.8 320.3 396.6 302.6 396.6H225V362.4H293C309.5 362.4 324.2 355.8 324.2 336.9C324.2 315.6 309.8 310.5 291.5 310.5H223.1V361H185V276H285.8C302.3 276.3 308.9 276.9 317 278.4C343.4 283.5 362 305.1 362 333.3C362 351 355.7 365.1 344 373.8C362.6 384.9 371.9 401.4 371.9 423C371.9 457.2 351.2 479.1 319.7 484.2C311 486 303.8 486 285.8 486ZM493.953 276H382.953V380H421.053V312.9H492.453C503.253 312.9 512.853 313.5 520.353 316.8C532.053 321.6 539.253 330.6 539.253 346.5C539.253 364.2 531.153 374.1 518.253 378.3C511.353 381 502.653 381.6 492.753 381.6H423V417.9H488.853L537.453 486H585.453L532.653 412.2C565.653 399.9 577.053 375.6 577.053 346.2C577.053 315 561.453 294.3 539.853 284.4C526.653 278.1 510.153 276 493.953 276ZM421.053 420H382.953V486H421.053V420Z"/>
</mask>
<path fill-rule="evenodd" clip-rule="evenodd" d="M185 398V450H223.1V398H185ZM285.8 486H225V451.5H302.9C320.6 451.5 334.1 443.4 334.1 423.3C334.1 403.8 320.3 396.6 302.6 396.6H225V362.4H293C309.5 362.4 324.2 355.8 324.2 336.9C324.2 315.6 309.8 310.5 291.5 310.5H223.1V361H185V276H285.8C302.3 276.3 308.9 276.9 317 278.4C343.4 283.5 362 305.1 362 333.3C362 351 355.7 365.1 344 373.8C362.6 384.9 371.9 401.4 371.9 423C371.9 457.2 351.2 479.1 319.7 484.2C311 486 303.8 486 285.8 486ZM493.953 276H382.953V380H421.053V312.9H492.453C503.253 312.9 512.853 313.5 520.353 316.8C532.053 321.6 539.253 330.6 539.253 346.5C539.253 364.2 531.153 374.1 518.253 378.3C511.353 381 502.653 381.6 492.753 381.6H423V417.9H488.853L537.453 486H585.453L532.653 412.2C565.653 399.9 577.053 375.6 577.053 346.2C577.053 315 561.453 294.3 539.853 284.4C526.653 278.1 510.153 276 493.953 276ZM421.053 420H382.953V486H421.053V420Z" fill="white"/>
<path d="M185 450H184V451H185V450ZM185 398V397H184V398H185ZM223.1 450V451H224.1V450H223.1ZM223.1 398H224.1V397H223.1V398ZM225 486H224V487H225V486ZM225 451.5V450.5H224V451.5H225ZM225 396.6H224V397.6H225V396.6ZM225 362.4V361.4H224V362.4H225ZM223.1 310.5V309.5H222.1V310.5H223.1ZM223.1 361V362H224.1V361H223.1ZM185 361H184V362H185V361ZM185 276V275H184V276H185ZM285.8 276L285.818 275L285.809 275H285.8V276ZM317 278.4L317.19 277.418L317.182 277.417L317 278.4ZM344 373.8L343.403 372.998L342.201 373.891L343.488 374.659L344 373.8ZM319.7 484.2L319.54 483.213L319.519 483.216L319.497 483.221L319.7 484.2ZM382.953 276V275H381.953V276H382.953ZM382.953 380H381.953V381H382.953V380ZM421.053 380V381H422.053V380H421.053ZM421.053 312.9V311.9H420.053V312.9H421.053ZM520.353 316.8L519.95 317.715L519.962 317.72L519.974 317.725L520.353 316.8ZM518.253 378.3L517.944 377.349L517.916 377.358L517.889 377.369L518.253 378.3ZM423 381.6V380.6H422V381.6H423ZM423 417.9H422V418.9H423V417.9ZM488.853 417.9L489.667 417.319L489.368 416.9H488.853V417.9ZM537.453 486L536.639 486.581L536.938 487H537.453V486ZM585.453 486V487H587.398L586.266 485.418L585.453 486ZM532.653 412.2L532.304 411.263L531.08 411.719L531.84 412.782L532.653 412.2ZM539.853 284.4L539.422 285.302L539.429 285.306L539.436 285.309L539.853 284.4ZM421.053 420H422.053V419H421.053V420ZM382.953 420V419H381.953V420H382.953ZM382.953 486H381.953V487H382.953V486ZM421.053 486V487H422.053V486H421.053ZM186 450V398H184V450H186ZM223.1 449H185V451H223.1V449ZM222.1 398V450H224.1V398H222.1ZM185 399H223.1V397H185V399ZM225 487H285.8V485H225V487ZM224 451.5V486H226V451.5H224ZM302.9 450.5H225V452.5H302.9V450.5ZM333.1 423.3C333.1 433.107 329.819 439.848 324.507 444.161C319.16 448.503 311.617 450.5 302.9 450.5V452.5C311.883 452.5 319.94 450.447 325.768 445.714C331.631 440.952 335.1 433.593 335.1 423.3H333.1ZM302.6 397.6C311.339 397.6 318.967 399.381 324.388 403.438C329.76 407.458 333.1 413.814 333.1 423.3H335.1C335.1 413.286 331.54 406.292 325.587 401.837C319.683 397.419 311.561 395.6 302.6 395.6V397.6ZM225 397.6H302.6V395.6H225V397.6ZM224 362.4V396.6H226V362.4H224ZM293 361.4H225V363.4H293V361.4ZM323.2 336.9C323.2 346.05 319.664 352.107 314.214 355.918C308.71 359.768 301.142 361.4 293 361.4V363.4C301.358 363.4 309.39 361.732 315.361 357.557C321.386 353.343 325.2 346.65 325.2 336.9H323.2ZM291.5 311.5C300.598 311.5 308.523 312.776 314.157 316.544C319.706 320.255 323.2 326.504 323.2 336.9H325.2C325.2 325.996 321.494 319.045 315.268 314.881C309.127 310.774 300.702 309.5 291.5 309.5V311.5ZM223.1 311.5H291.5V309.5H223.1V311.5ZM224.1 361V310.5H222.1V361H224.1ZM185 362H223.1V360H185V362ZM184 276V361H186V276H184ZM285.8 275H185V277H285.8V275ZM317.182 277.417C309.003 275.902 302.341 275.301 285.818 275L285.782 277C302.259 277.299 308.797 277.898 316.818 279.383L317.182 277.417ZM363 333.3C363 304.615 344.054 282.608 317.19 277.418L316.81 279.382C342.746 284.392 361 305.585 361 333.3H363ZM344.597 374.602C356.604 365.674 363 351.243 363 333.3H361C361 350.757 354.796 364.526 343.403 372.998L344.597 374.602ZM372.9 423C372.9 401.05 363.416 384.223 344.512 372.941L343.488 374.659C361.784 385.577 370.9 401.75 370.9 423H372.9ZM319.86 485.187C335.8 482.606 349.074 475.762 358.364 465.172C367.658 454.578 372.9 440.309 372.9 423H370.9C370.9 439.891 365.792 453.672 356.861 463.853C347.926 474.038 335.1 480.694 319.54 483.213L319.86 485.187ZM285.8 487C303.768 487 311.081 487.004 319.903 485.179L319.497 483.221C310.919 484.996 303.832 485 285.8 485V487ZM382.953 277H493.953V275H382.953V277ZM383.953 380V276H381.953V380H383.953ZM382.953 381H421.053V379H382.953V381ZM420.053 312.9V380H422.053V312.9H420.053ZM492.453 311.9H421.053V313.9H492.453V311.9ZM520.756 315.885C513.042 312.491 503.247 311.9 492.453 311.9V313.9C503.259 313.9 512.664 314.509 519.95 317.715L520.756 315.885ZM540.253 346.5C540.253 338.396 538.417 331.965 535.02 326.928C531.623 321.892 526.721 318.332 520.733 315.875L519.974 317.725C525.685 320.068 530.233 323.408 533.362 328.047C536.49 332.685 538.253 338.704 538.253 346.5H540.253ZM518.563 379.251C525.179 377.097 530.626 373.458 534.411 368.035C538.192 362.616 540.253 355.502 540.253 346.5H538.253C538.253 355.198 536.264 361.884 532.771 366.89C529.28 371.892 524.227 375.303 517.944 377.349L518.563 379.251ZM492.753 382.6C502.66 382.6 511.527 382.006 518.618 379.231L517.889 377.369C511.179 379.994 502.646 380.6 492.753 380.6V382.6ZM423 382.6H492.753V380.6H423V382.6ZM422 381.6V417.9H424V381.6H422ZM488.853 416.9H423V418.9H488.853V416.9ZM538.267 485.419L489.667 417.319L488.039 418.481L536.639 486.581L538.267 485.419ZM585.453 485H537.453V487H585.453V485ZM531.84 412.782L584.64 486.582L586.266 485.418L533.466 411.618L531.84 412.782ZM576.053 346.2C576.053 360.776 573.227 374.002 566.377 385.087C559.536 396.159 548.627 405.179 532.304 411.263L533.002 413.137C549.679 406.921 560.97 397.641 568.079 386.138C575.179 374.648 578.053 361.024 578.053 346.2H576.053ZM539.436 285.309C560.679 295.045 576.053 315.389 576.053 346.2H578.053C578.053 314.611 562.227 293.555 540.27 283.491L539.436 285.309ZM493.953 277C510.09 277 526.417 279.096 539.422 285.302L540.284 283.498C526.889 277.104 510.216 275 493.953 275V277ZM421.053 419H382.953V421H421.053V419ZM383.953 486V420H381.953V486H383.953ZM421.053 485H382.953V487H421.053V485ZM420.053 420V486H422.053V420H420.053Z" fill="white" mask="url(#path-1-outside-1_1_2)"/>
<path fill-rule="evenodd" clip-rule="evenodd" d="M660.213 171H651H111H102.213L102.427 171.213L81.2134 192.426L81 192.213V201V560V569.213L81.2134 569L102.213 590H111H651H660.213L681 569.213V560V201V192.214L660 171.213L660.213 171ZM651 201H111V560H651V201Z" fill="white"/>
</svg>
